<svg id="visual" viewBox="0 0 1920 1080" width="1920" height="1080" xmlns="http://www.w3.org/2000/svg" xmlns:xlink="http://www.w3.org/1999/xlink" version="1.1"><path d="M0 779L53.3 778.8C106.7 778.7 213.3 778.3 320 784.8C426.7 791.3 533.3 804.7 640 817.5C746.7 830.3 853.3 842.7 960 842.3C1066.7 842 1173.3 829 1280 822C1386.7 815 1493.3 814 1600 818.2C1706.7 822.3 1813.3 831.7 1866.7 836.3L1920 841L1920 1081L1866.7 1081C1813.3 1081 1706.7 1081 1600 1081C1493.3 1081 1386.7 1081 1280 1081C1173.3 1081 1066.7 1081 960 1081C853.3 1081 746.7 1081 640 1081C533.3 1081 426.7 1081 320 1081C213.3 1081 106.7 1081 53.3 1081L0 1081Z" fill="#b6ccfe"></path><path d="M0 890L53.3 882.3C106.7 874.7 213.3 859.3 320 862.5C426.7 865.7 533.3 887.3 640 898.7C746.7 910 853.3 911 960 899.2C1066.7 887.3 1173.3 862.7 1280 856.2C1386.7 849.7 1493.3 861.3 1600 870.7C1706.7 880 1813.3 887 1866.7 890.5L1920 894L1920 1081L1866.7 1081C1813.3 1081 1706.7 1081 1600 1081C1493.3 1081 1386.7 1081 1280 1081C1173.3 1081 1066.7 1081 960 1081C853.3 1081 746.7 1081 640 1081C533.3 1081 426.7 1081 320 1081C213.3 1081 106.7 1081 53.3 1081L0 1081Z" fill="#798cfc"></path><path d="M0 954L53.3 959.8C106.7 965.7 213.3 977.3 320 973.3C426.7 969.3 533.3 949.7 640 953.3C746.7 957 853.3 984 960 995.8C1066.7 1007.7 1173.3 1004.3 1280 995.7C1386.7 987 1493.3 973 1600 965.2C1706.7 957.3 1813.3 955.7 1866.7 954.8L1920 954L1920 1081L1866.7 1081C1813.3 1081 1706.7 1081 1600 1081C1493.3 1081 1386.7 1081 1280 1081C1173.3 1081 1066.7 1081 960 1081C853.3 1081 746.7 1081 640 1081C533.3 1081 426.7 1081 320 1081C213.3 1081 106.7 1081 53.3 1081L0 1081Z" fill="#673de6"></path></svg>