<svg width="394" height="58" viewBox="0 0 394 58" fill="none" xmlns="http://www.w3.org/2000/svg">
<g filter="url(#filter0_d_181_2)">
<path d="M27.928 13.576C27.928 15.272 27.528 16.872 26.728 18.376C25.928 19.88 24.648 21.112 22.888 22.072C21.128 23 18.872 23.464 16.12 23.464H10.072V37H4.6V3.64H16.12C18.68 3.64 20.84 4.088 22.6 4.984C24.392 5.848 25.72 7.032 26.584 8.536C27.48 10.04 27.928 11.72 27.928 13.576ZM16.12 19C18.2 19 19.752 18.536 20.776 17.608C21.8 16.648 22.312 15.304 22.312 13.576C22.312 9.928 20.248 8.104 16.12 8.104H10.072V19H16.12ZM38.6189 14.392C39.4189 13.048 40.4749 12.008 41.7869 11.272C43.1309 10.504 44.7149 10.12 46.5389 10.12V15.784H45.1469C43.0029 15.784 41.3709 16.328 40.2509 17.416C39.1629 18.504 38.6189 20.392 38.6189 23.08V37H33.1469V10.552H38.6189V14.392ZM120.991 10.12C123.071 10.12 124.927 10.552 126.559 11.416C128.223 12.28 129.519 13.56 130.447 15.256C131.407 16.952 131.887 19 131.887 21.4V37H126.463V22.216C126.463 19.848 125.871 18.04 124.687 16.792C123.503 15.512 121.887 14.872 119.839 14.872C117.791 14.872 116.159 15.512 114.943 16.792C113.759 18.04 113.167 19.848 113.167 22.216V37H107.743V22.216C107.743 19.848 107.151 18.04 105.967 16.792C104.783 15.512 103.167 14.872 101.119 14.872C99.071 14.872 97.439 15.512 96.223 16.792C95.039 18.04 94.447 19.848 94.447 22.216V37H88.975V10.552H94.447V13.576C95.343 12.488 96.479 11.64 97.855 11.032C99.231 10.424 100.703 10.12 102.271 10.12C104.383 10.12 106.271 10.568 107.935 11.464C109.599 12.36 110.879 13.656 111.775 15.352C112.575 13.752 113.823 12.488 115.519 11.56C117.215 10.6 119.039 10.12 120.991 10.12ZM144.322 14.44C145.25 13.224 146.514 12.2 148.114 11.368C149.714 10.536 151.522 10.12 153.538 10.12C155.842 10.12 157.938 10.696 159.826 11.848C161.746 12.968 163.25 14.552 164.338 16.6C165.426 18.648 165.97 21 165.97 23.656C165.97 26.312 165.426 28.696 164.338 30.808C163.25 32.888 161.746 34.52 159.826 35.704C157.938 36.856 155.842 37.432 153.538 37.432C151.522 37.432 149.73 37.032 148.162 36.232C146.594 35.4 145.314 34.376 144.322 33.16V49.576H138.85V10.552H144.322V14.44ZM160.402 23.656C160.402 21.832 160.018 20.264 159.25 18.952C158.514 17.608 157.522 16.6 156.274 15.928C155.058 15.224 153.746 14.872 152.338 14.872C150.962 14.872 149.65 15.224 148.402 15.928C147.186 16.632 146.194 17.656 145.426 19C144.69 20.344 144.322 21.928 144.322 23.752C144.322 25.576 144.69 27.176 145.426 28.552C146.194 29.896 147.186 30.92 148.402 31.624C149.65 32.328 150.962 32.68 152.338 32.68C153.746 32.68 155.058 32.328 156.274 31.624C157.522 30.888 158.514 29.832 159.25 28.456C160.018 27.08 160.402 25.48 160.402 23.656ZM177.765 15.016V29.656C177.765 30.648 177.989 31.368 178.437 31.816C178.917 32.232 179.717 32.44 180.837 32.44H184.197V37H179.877C177.413 37 175.525 36.424 174.213 35.272C172.901 34.12 172.245 32.248 172.245 29.656V15.016H169.125V10.552H172.245V3.976H177.765V10.552H184.197V15.016H177.765ZM198.841 37.432C196.761 37.432 194.889 37.064 193.225 36.328C191.593 35.56 190.297 34.536 189.337 33.256C188.377 31.944 187.865 30.488 187.801 28.888H193.465C193.561 30.008 194.089 30.952 195.049 31.72C196.041 32.456 197.273 32.824 198.745 32.824C200.281 32.824 201.465 32.536 202.297 31.96C203.161 31.352 203.593 30.584 203.593 29.656C203.593 28.664 203.113 27.928 202.153 27.448C201.225 26.968 199.737 26.44 197.689 25.864C195.705 25.32 194.089 24.792 192.841 24.28C191.593 23.768 190.505 22.984 189.577 21.928C188.681 20.872 188.233 19.48 188.233 17.752C188.233 16.344 188.649 15.064 189.481 13.912C190.313 12.728 191.497 11.8 193.033 11.128C194.601 10.456 196.393 10.12 198.409 10.12C201.417 10.12 203.833 10.888 205.657 12.424C207.513 13.928 208.505 15.992 208.633 18.616H203.161C203.065 17.432 202.585 16.488 201.721 15.784C200.857 15.08 199.689 14.728 198.217 14.728C196.777 14.728 195.673 15 194.905 15.544C194.137 16.088 193.753 16.808 193.753 17.704C193.753 18.408 194.009 19 194.521 19.48C195.033 19.96 195.657 20.344 196.393 20.632C197.129 20.888 198.217 21.224 199.657 21.64C201.577 22.152 203.145 22.68 204.361 23.224C205.609 23.736 206.681 24.504 207.577 25.528C208.473 26.552 208.937 27.912 208.969 29.608C208.969 31.112 208.553 32.456 207.721 33.64C206.889 34.824 205.705 35.752 204.169 36.424C202.665 37.096 200.889 37.432 198.841 37.432ZM250.017 3.64V37H244.545V14.152L234.369 37H230.577L220.353 14.152V37H214.881V3.64H220.785L232.497 29.8L244.161 3.64H250.017ZM255.385 23.656C255.385 21 255.929 18.648 257.017 16.6C258.137 14.552 259.641 12.968 261.529 11.848C263.449 10.696 265.561 10.12 267.865 10.12C269.945 10.12 271.753 10.536 273.289 11.368C274.857 12.168 276.105 13.176 277.033 14.392V10.552H282.553V37H277.033V33.064C276.105 34.312 274.841 35.352 273.241 36.184C271.641 37.016 269.817 37.432 267.769 37.432C265.497 37.432 263.417 36.856 261.529 35.704C259.641 34.52 258.137 32.888 257.017 30.808C255.929 28.696 255.385 26.312 255.385 23.656ZM277.033 23.752C277.033 21.928 276.649 20.344 275.881 19C275.145 17.656 274.169 16.632 272.953 15.928C271.737 15.224 270.425 14.872 269.017 14.872C267.609 14.872 266.297 15.224 265.081 15.928C263.865 16.6 262.873 17.608 262.105 18.952C261.369 20.264 261.001 21.832 261.001 23.656C261.001 25.48 261.369 27.08 262.105 28.456C262.873 29.832 263.865 30.888 265.081 31.624C266.329 32.328 267.641 32.68 269.017 32.68C270.425 32.68 271.737 32.328 272.953 31.624C274.169 30.92 275.145 29.896 275.881 28.552C276.649 27.176 277.033 25.576 277.033 23.752ZM299.341 37.432C297.261 37.432 295.389 37.064 293.725 36.328C292.093 35.56 290.797 34.536 289.837 33.256C288.877 31.944 288.365 30.488 288.301 28.888H293.965C294.061 30.008 294.589 30.952 295.549 31.72C296.541 32.456 297.773 32.824 299.245 32.824C300.781 32.824 301.965 32.536 302.797 31.96C303.661 31.352 304.093 30.584 304.093 29.656C304.093 28.664 303.613 27.928 302.653 27.448C301.725 26.968 300.237 26.44 298.189 25.864C296.205 25.32 294.589 24.792 293.341 24.28C292.093 23.768 291.005 22.984 290.077 21.928C289.181 20.872 288.733 19.48 288.733 17.752C288.733 16.344 289.149 15.064 289.981 13.912C290.813 12.728 291.997 11.8 293.533 11.128C295.101 10.456 296.893 10.12 298.909 10.12C301.917 10.12 304.333 10.888 306.157 12.424C308.013 13.928 309.005 15.992 309.133 18.616H303.661C303.565 17.432 303.085 16.488 302.221 15.784C301.357 15.08 300.189 14.728 298.717 14.728C297.277 14.728 296.173 15 295.405 15.544C294.637 16.088 294.253 16.808 294.253 17.704C294.253 18.408 294.509 19 295.021 19.48C295.533 19.96 296.157 20.344 296.893 20.632C297.629 20.888 298.717 21.224 300.157 21.64C302.077 22.152 303.645 22.68 304.861 23.224C306.109 23.736 307.181 24.504 308.077 25.528C308.973 26.552 309.437 27.912 309.469 29.608C309.469 31.112 309.053 32.456 308.221 33.64C307.389 34.824 306.205 35.752 304.669 36.424C303.165 37.096 301.389 37.432 299.341 37.432ZM321.765 15.016V29.656C321.765 30.648 321.989 31.368 322.437 31.816C322.917 32.232 323.717 32.44 324.837 32.44H328.197V37H323.877C321.413 37 319.525 36.424 318.213 35.272C316.901 34.12 316.245 32.248 316.245 29.656V15.016H313.125V10.552H316.245V3.976H321.765V10.552H328.197V15.016H321.765ZM357.481 23.128C357.481 24.12 357.417 25.016 357.289 25.816H337.081C337.241 27.928 338.025 29.624 339.433 30.904C340.841 32.184 342.569 32.824 344.617 32.824C347.561 32.824 349.641 31.592 350.857 29.128H356.761C355.961 31.56 354.505 33.56 352.393 35.128C350.313 36.664 347.721 37.432 344.617 37.432C342.089 37.432 339.817 36.872 337.801 35.752C335.817 34.6 334.249 33 333.097 30.952C331.977 28.872 331.417 26.472 331.417 23.752C331.417 21.032 331.961 18.648 333.049 16.6C334.169 14.52 335.721 12.92 337.705 11.8C339.721 10.68 342.025 10.12 344.617 10.12C347.113 10.12 349.337 10.664 351.289 11.752C353.241 12.84 354.761 14.376 355.849 16.36C356.937 18.312 357.481 20.568 357.481 23.128ZM351.769 21.4C351.737 19.384 351.017 17.768 349.609 16.552C348.201 15.336 346.457 14.728 344.377 14.728C342.489 14.728 340.873 15.336 339.529 16.552C338.185 17.736 337.385 19.352 337.129 21.4H351.769ZM368.338 14.392C369.138 13.048 370.194 12.008 371.506 11.272C372.85 10.504 374.434 10.12 376.258 10.12V15.784H374.866C372.722 15.784 371.09 16.328 369.97 17.416C368.882 18.504 368.338 20.392 368.338 23.08V37H362.866V10.552H368.338V14.392ZM388.152 3.64L387.528 26.92H382.968L382.344 3.64H388.152ZM385.416 37.336C384.424 37.336 383.592 37 382.92 36.328C382.248 35.656 381.912 34.824 381.912 33.832C381.912 32.84 382.248 32.008 382.92 31.336C383.592 30.664 384.424 30.328 385.416 30.328C386.376 30.328 387.192 30.664 387.864 31.336C388.536 32.008 388.872 32.84 388.872 33.832C388.872 34.824 388.536 35.656 387.864 36.328C387.192 37 386.376 37.336 385.416 37.336Z" fill="url(#paint0_linear_181_2)"/>
</g>
<path d="M77.455 36.5117L84 42.8642M82.1109 25.5C82.1109 34.1357 74.922 41.1358 66.0565 41.1358C57.1889 41.1358 50 34.1357 50 25.5021C50 16.8623 57.1889 9.8642 66.0544 9.8642C74.922 9.8642 82.1109 16.8643 82.1109 25.5Z" stroke="#FD85FF" stroke-width="5" stroke-linecap="round" stroke-linejoin="round"/>
<defs>
<filter id="filter0_d_181_2" x="0.599976" y="3.63998" width="392.271" height="53.936" filterUnits="userSpaceOnUse" color-interpolation-filters="sRGB">
<feFlood flood-opacity="0" result="BackgroundImageFix"/>
<feColorMatrix in="SourceAlpha" type="matrix" values="0 0 0 0 0 0 0 0 0 0 0 0 0 0 0 0 0 0 127 0" result="hardAlpha"/>
<feOffset dy="4"/>
<feGaussianBlur stdDeviation="2"/>
<feComposite in2="hardAlpha" operator="out"/>
<feColorMatrix type="matrix" values="0 0 0 0 0 0 0 0 0 0 0 0 0 0 0 0 0 0 0.25 0"/>
<feBlend mode="normal" in2="BackgroundImageFix" result="effect1_dropShadow_181_2"/>
<feBlend mode="normal" in="SourceGraphic" in2="effect1_dropShadow_181_2" result="shape"/>
</filter>
<linearGradient id="paint0_linear_181_2" x1="1" y1="20" x2="394" y2="20" gradientUnits="userSpaceOnUse">
<stop offset="0.15" stop-color="#FD85FF"/>
<stop offset="0.86" stop-color="#9DF9FF"/>
</linearGradient>
</defs>
</svg>
